------------Log start------------
Input #0, matroska,webm, from 'data/65b2d6652807aeeaa7f468ea/1706223358127/record_out/e7b657d4-dfa2-4276-b511-50c56245ab9f-audio.webm':
  Metadata:
    encoder         : ebml-go.webm.BlockWriter
    creation_time   : 2024-01-25T21:45:10.845000Z
  Duration: N/A, start: 0.000000, bitrate: N/A
  Stream #0:0(eng): Subtitle: webvtt (default) (metadata)
    Metadata:
      title           : VttAudioDroppedPacketMeta
  Stream #0:1(eng): Audio: opus, 48000 Hz, stereo, fltp (default)
    Metadata:
      title           : Audio
Input #1, png_pipe, from 'data/black-bg.png':
  Duration: N/A, bitrate: N/A
  Stream #1:0: Video: png, rgb24(pc), 1280x720 [SAR 3779:3779 DAR 16:9], 25 fps, 25 tbr, 25 tbn, 25 tbc
Input #2, png_pipe, from 'data/black-bg.png':
  Duration: N/A, bitrate: N/A
  Stream #2:0: Video: png, rgb24(pc), 1280x720 [SAR 3779:3779 DAR 16:9], 25 fps, 25 tbr, 25 tbn, 25 tbc
Input #3, lavfi, from 'anullsrc':
  Duration: N/A, start: 0.000000, bitrate: 705 kb/s
  Stream #3:0: Audio: pcm_u8, 44100 Hz, stereo, u8, 705 kb/s
Stream mapping:
  Stream #0:1 (opus) -> concat:in0:a0
  Stream #1:0 (png) -> scale
  Stream #2:0 (png) -> scale
  Stream #3:0 (pcm_u8) -> concat:in1:a0
  concat -> Stream #0:0 (libx264)
  concat -> Stream #0:1 (aac)
Press [q] to stop, [?] for help
[libx264 @ 0x55a3466a9000] using SAR=1/1
[libx264 @ 0x55a3466a9000] using cpu capabilities: MMX2 SSE2Fast SSSE3 SSE4.2 AVX FMA3 BMI2 AVX2 AVX512
[libx264 @ 0x55a3466a9000] profile High 4:4:4 Predictive, level 1.3, 4:4:4, 8-bit
[libx264 @ 0x55a3466a9000] 264 - core 164 r3095 baee400 - H.264/MPEG-4 AVC codec - Copyleft 2003-2022 - http://www.videolan.org/x264.html - options: cabac=0 ref=1 deblock=0:0:0 analyse=0:0 me=dia subme=0 psy=1 psy_rd=1.00:0.00 mixed_ref=0 me_range=16 chroma_me=1 trellis=0 8x8dct=0 cqm=0 deadzone=21,11 fast_pskip=1 chroma_qp_offset=6 threads=6 lookahead_threads=1 sliced_threads=0 nr=0 decimate=1 interlaced=0 bluray_compat=0 constrained_intra=0 bframes=0 weightp=0 keyint=250 keyint_min=25 scenecut=0 intra_refresh=0 rc=crf mbtree=0 crf=23.0 qcomp=0.60 qpmin=0 qpmax=69 qpstep=4 ip_ratio=1.40 aq=0
Output #0, mp4, to 'data/65b2d6652807aeeaa7f468ea/1706223358127/record_out/f59f49fc-060b-404c-8829-10322150fca3.mp4':
  Metadata:
    encoder         : Lavf58.76.100
  Stream #0:0: Video: h264 (avc1 / 0x31637661), yuv444p(tv, progressive), 320x180 [SAR 1:1 DAR 16:9], q=2-31, 30 fps, 15360 tbn (default)
    Metadata:
      encoder         : Lavc58.134.100 libx264
    Side data:
      cpb: bitrate max/min/avg: 0/0/0 buffer size: 0 vbv_delay: N/A
  Stream #0:1: Audio: aac (LC) (mp4a / 0x6134706D), 48000 Hz, stereo, fltp, 128 kb/s (default)
    Metadata:
      encoder         : Lavc58.134.100 aac
frame=    1 fps=0.0 q=0.0 size=       0kB time=00:00:00.00 bitrate=N/A speed=   0x    frame=  180 fps=0.0 q=12.0 size=       0kB time=00:00:05.76 bitrate=   0.1kbits/s dup=30 drop=0 speed=10.5x    frame=  394 fps=375 q=12.0 size=       0kB time=00:00:13.03 bitrate=   0.0kbits/s dup=66 drop=0 speed=12.4x    frame=  607 fps=391 q=12.0 size=       0kB time=00:00:20.15 bitrate=   0.0kbits/s dup=101 drop=0 speed=  13x    frame=  818 fps=398 q=12.0 size=       0kB time=00:00:27.00 bitrate=   0.0kbits/s dup=136 drop=0 speed=13.1x    frame= 1038 fps=406 q=12.0 size=       0kB time=00:00:34.45 bitrate=   0.0kbits/s dup=173 drop=0 speed=13.5x    frame= 1249 fps=409 q=12.0 size=       0kB time=00:00:41.36 bitrate=   0.0kbits/s dup=208 drop=0 speed=13.5x    frame= 1445 fps=406 q=12.0 size=     256kB time=00:00:47.94 bitrate=  43.7kbits/s dup=241 drop=0 speed=13.5x    frame= 1639 fps=404 q=12.0 size=     256kB time=00:00:54.36 bitrate=  38.6kbits/s dup=273 drop=0 speed=13.4x    frame= 1846 fps=405 q=12.0 size=     256kB time=00:01:01.26 bitrate=  34.2kbits/s dup=308 drop=0 speed=13.4x    frame= 2058 fps=407 q=12.0 size=     256kB time=00:01:08.41 bitrate=  30.7kbits/s dup=343 drop=0 speed=13.5x    frame= 2254 fps=405 q=13.0 size=     256kB time=00:01:15.00 bitrate=  28.0kbits/s dup=376 drop=0 speed=13.5x    frame= 2446 fps=403 q=12.0 size=     512kB time=00:01:21.35 bitrate=  51.6kbits/s dup=408 drop=0 speed=13.4x    frame= 2645 fps=403 q=12.0 size=     512kB time=00:01:28.06 bitrate=  47.6kbits/s dup=441 drop=0 speed=13.4x    frame= 2843 fps=402 q=12.0 size=     512kB time=00:01:34.50 bitrate=  44.4kbits/s dup=474 drop=0 speed=13.4x    frame= 3056 fps=404 q=12.0 size=     512kB time=00:01:41.60 bitrate=  41.3kbits/s dup=509 drop=0 speed=13.4x    frame= 3262 fps=404 q=12.0 size=     512kB time=00:01:48.46 bitrate=  38.7kbits/s dup=544 drop=0 speed=13.4x    frame= 3469 fps=405 q=12.0 size=     512kB time=00:01:55.41 bitrate=  36.3kbits/s dup=578 drop=0 speed=13.5x    frame= 3673 fps=405 q=12.0 size=     768kB time=00:02:02.34 bitrate=  51.4kbits/s dup=612 drop=0 speed=13.5x    [mp4 @ 0x55a3466a44c0] Starting second pass: moving the moov atom to the beginning of the file
frame= 3690 fps=405 q=-1.0 Lsize=     864kB time=00:02:02.96 bitrate=  57.6kbits/s dup=615 drop=0 speed=13.5x    
video:86kB audio:723kB subtitle:0kB other streams:0kB global headers:0kB muxing overhead: 6.809802%
[libx264 @ 0x55a3466a9000] frame I:15    Avg QP: 9.73  size:  3050
[libx264 @ 0x55a3466a9000] frame P:3675  Avg QP:12.01  size:    11
[libx264 @ 0x55a3466a9000] mb I  I16..4: 100.0%  0.0%  0.0%
[libx264 @ 0x55a3466a9000] mb P  I16..4:  0.0%  0.0%  0.0%  P16..4:  0.0%  0.0%  0.0%  0.0%  0.0%    skip:100.0%
[libx264 @ 0x55a3466a9000] coded y,u,v intra: 4.7% 0.0% 0.0% inter: 0.0% 0.0% 0.0%
[libx264 @ 0x55a3466a9000] i16 v,h,dc,p: 91%  6%  3%  0%
[libx264 @ 0x55a3466a9000] kb/s:5.69
[aac @ 0x55a34669ae40] Qavg: 4078.230
ffmpeg version 4.4 Copyright (c) 2000-2021 the FFmpeg developers
  built with gcc 12 (Debian 12.2.0-14)
  configuration: --enable-nonfree --enable-gpl --enable-libx264 --enable-libfontconfig --enable-libfreetype --enable-libvpx --enable-libopus
  libavutil      56. 70.100 / 56. 70.100
  libavcodec     58.134.100 / 58.134.100
  libavformat    58. 76.100 / 58. 76.100
  libavdevice    58. 13.100 / 58. 13.100
  libavfilter     7.110.100 /  7.110.100
  libswscale      5.  9.100 /  5.  9.100
  libswresample   3.  9.100 /  3.  9.100
  libpostproc    55.  9.100 / 55.  9.100
Input #0, png_pipe, from 'data/black-bg.png':
  Duration: N/A, bitrate: N/A
  Stream #0:0: Video: png, rgb24(pc), 1280x720 [SAR 3779:3779 DAR 16:9], 25 fps, 25 tbr, 25 tbn, 25 tbc
Input #1, png_pipe, from 'data/black-bg.png':
  Duration: N/A, bitrate: N/A
  Stream #1:0: Video: png, rgb24(pc), 1280x720 [SAR 3779:3779 DAR 16:9], 25 fps, 25 tbr, 25 tbn, 25 tbc
Stream mapping:
  Stream #0:0 (png) -> scale
  setdar -> Stream #0:0 (libx264)
Press [q] to stop, [?] for help
[libx264 @ 0x564ee7f6fd40] using SAR=1/1
[libx264 @ 0x564ee7f6fd40] using cpu capabilities: MMX2 SSE2Fast SSSE3 SSE4.2 AVX FMA3 BMI2 AVX2 AVX512
[libx264 @ 0x564ee7f6fd40] profile High 4:4:4 Predictive, level 3.1, 4:4:4, 8-bit
[libx264 @ 0x564ee7f6fd40] 264 - core 164 r3095 baee400 - H.264/MPEG-4 AVC codec - Copyleft 2003-2022 - http://www.videolan.org/x264.html - options: cabac=1 ref=3 deblock=1:0:0 analyse=0x3:0x113 me=hex subme=7 psy=1 psy_rd=1.00:0.00 mixed_ref=1 me_range=16 chroma_me=1 trellis=1 8x8dct=1 cqm=0 deadzone=21,11 fast_pskip=1 chroma_qp_offset=4 threads=22 lookahead_threads=3 sliced_threads=0 nr=0 decimate=1 interlaced=0 bluray_compat=0 constrained_intra=0 bframes=3 b_pyramid=2 b_adapt=1 b_bias=0 direct=1 weightb=1 open_gop=0 weightp=2 keyint=250 keyint_min=25 scenecut=40 intra_refresh=0 rc_lookahead=40 rc=crf mbtree=1 crf=23.0 qcomp=0.60 qpmin=0 qpmax=69 qpstep=4 ip_ratio=1.40 aq=1:1.00
Output #0, mp4, to 'data/65b2d6652807aeeaa7f468ea/1706223358127/record_out/init_file.mp4':
  Metadata:
    encoder         : Lavf58.76.100
  Stream #0:0: Video: h264 (avc1 / 0x31637661), yuv444p(tv, progressive), 1280x720 [SAR 1:1 DAR 16:9], q=2-31, 25 fps, 12800 tbn
    Metadata:
      encoder         : Lavc58.134.100 libx264
    Side data:
      cpb: bitrate max/min/avg: 0/0/0 buffer size: 0 vbv_delay: N/A
frame=    1 fps=0.0 q=0.0 size=       0kB time=00:00:00.00 bitrate=N/A speed=   0x    frame=   25 fps=0.0 q=-1.0 Lsize=       3kB time=00:00:00.88 bitrate=  27.7kbits/s speed=3.78x    
video:2kB audio:0kB subtitle:0kB other streams:0kB global headers:0kB muxing overhead: 62.941177%
[libx264 @ 0x564ee7f6fd40] frame I:1     Avg QP: 9.00  size:   236
[libx264 @ 0x564ee7f6fd40] frame P:6     Avg QP:10.17  size:    45
[libx264 @ 0x564ee7f6fd40] frame B:18    Avg QP:12.67  size:    38
[libx264 @ 0x564ee7f6fd40] consecutive B-frames:  4.0%  0.0%  0.0% 96.0%
[libx264 @ 0x564ee7f6fd40] mb I  I16..4:  0.0% 100.0%  0.0%
[libx264 @ 0x564ee7f6fd40] mb P  I16..4:  0.0%  0.0%  0.0%  P16..4:  0.0%  0.0%  0.0%  0.0%  0.0%    skip:100.0%
[libx264 @ 0x564ee7f6fd40] mb B  I16..4:  0.0%  0.0%  0.0%  B16..8:  0.0%  0.0%  0.0%  direct: 0.0%  skip:100.0%
[libx264 @ 0x564ee7f6fd40] 8x8 transform intra:100.0%
[libx264 @ 0x564ee7f6fd40] coded y,u,v intra: 0.0% 0.0% 0.0% inter: 0.0% 0.0% 0.0%
[libx264 @ 0x564ee7f6fd40] i16 v,h,dc,p:  0%  0% 100%  0%
[libx264 @ 0x564ee7f6fd40] i8 v,h,dc,ddl,ddr,vr,hd,vl,hu:  0%  0% 100%  0%  0%  0%  0%  0%  0%
[libx264 @ 0x564ee7f6fd40] Weighted P-Frames: Y:0.0% UV:0.0%
[libx264 @ 0x564ee7f6fd40] kb/s:9.45
Input #0, mov,mp4,m4a,3gp,3g2,mj2, from 'data/65b2d6652807aeeaa7f468ea/1706223358127/record_out/init_file.mp4':
  Metadata:
    major_brand     : isom
    minor_version   : 512
    compatible_brands: isomiso2avc1mp41
    encoder         : Lavf58.76.100
  Duration: 00:00:01.00, start: 0.000000, bitrate: 24 kb/s
  Stream #0:0(und): Video: h264 (High 4:4:4 Predictive) (avc1 / 0x31637661), yuv444p, 1280x720 [SAR 1:1 DAR 16:9], 14 kb/s, 25 fps, 25 tbr, 12800 tbn, 50 tbc (default)
    Metadata:
      handler_name    : VideoHandler
      vendor_id       : [0][0][0][0]
Input #1, mov,mp4,m4a,3gp,3g2,mj2, from 'data/65b2d6652807aeeaa7f468ea/1706223358127/record_out/f59f49fc-060b-404c-8829-10322150fca3.mp4':
  Metadata:
    major_brand     : isom
    minor_version   : 512
    compatible_brands: isomiso2avc1mp41
    encoder         : Lavf58.76.100
  Duration: 00:02:03.00, start: 0.000000, bitrate: 57 kb/s
  Stream #1:0(und): Video: h264 (High 4:4:4 Predictive) (avc1 / 0x31637661), yuv444p, 320x180 [SAR 1:1 DAR 16:9], 5 kb/s, 30 fps, 30 tbr, 15360 tbn, 60 tbc (default)
    Metadata:
      handler_name    : VideoHandler
      vendor_id       : [0][0][0][0]
  Stream #1:1(und): Audio: aac (LC) (mp4a / 0x6134706D), 48000 Hz, stereo, fltp, 48 kb/s (default)
    Metadata:
      handler_name    : SoundHandler
      vendor_id       : [0][0][0][0]
Stream mapping:
  Stream #0:0 (h264) -> overlay:main
  Stream #1:0 (h264) -> scale
  Stream #1:1 (aac) -> volume
  volume -> Stream #0:0 (aac)
  overlay -> Stream #0:1 (libx264)
Press [q] to stop, [?] for help
-async is forwarded to lavfi similarly to -af aresample=async=1:min_hard_comp=0.100000:first_pts=0.
[libx264 @ 0x5581aff5b080] using SAR=1/1
[libx264 @ 0x5581aff5b080] using cpu capabilities: MMX2 SSE2Fast SSSE3 SSE4.2 AVX FMA3 BMI2 AVX2 AVX512
[libx264 @ 0x5581aff5b080] profile High, level 3.1, 4:2:0, 8-bit
[libx264 @ 0x5581aff5b080] 264 - core 164 r3095 baee400 - H.264/MPEG-4 AVC codec - Copyleft 2003-2022 - http://www.videolan.org/x264.html - options: cabac=1 ref=3 deblock=1:0:0 analyse=0x3:0x113 me=hex subme=7 psy=1 psy_rd=1.00:0.00 mixed_ref=1 me_range=16 chroma_me=1 trellis=1 8x8dct=1 cqm=0 deadzone=21,11 fast_pskip=1 chroma_qp_offset=-2 threads=22 lookahead_threads=3 sliced_threads=0 nr=0 decimate=1 interlaced=0 bluray_compat=0 constrained_intra=0 bframes=3 b_pyramid=2 b_adapt=1 b_bias=0 direct=1 weightb=1 open_gop=0 weightp=2 keyint=250 keyint_min=25 scenecut=40 intra_refresh=0 rc_lookahead=40 rc=crf mbtree=1 crf=22.0 qcomp=0.60 qpmin=0 qpmax=69 qpstep=4 ip_ratio=1.40 aq=1:1.00
Output #0, mp4, to 'data/65b2d6652807aeeaa7f468ea/1706223358127/record_out/Rec-65b2d6652807aeeaa7f468ea-1706219110845.mp4':
  Metadata:
    major_brand     : isom
    minor_version   : 512
    compatible_brands: isomiso2avc1mp41
    encoder         : Lavf58.76.100
  Stream #0:0: Audio: aac (LC) (mp4a / 0x6134706D), 48000 Hz, stereo, fltp, 128 kb/s (default)
    Metadata:
      encoder         : Lavc58.134.100 aac
  Stream #0:1: Video: h264 (avc1 / 0x31637661), yuv420p(tv, progressive), 1280x720 [SAR 1:1 DAR 16:9], q=2-31, 25 fps, 12800 tbn (default)
    Metadata:
      encoder         : Lavc58.134.100 libx264
    Side data:
      cpb: bitrate max/min/avg: 0/0/0 buffer size: 0 vbv_delay: N/A
frame=    1 fps=0.0 q=0.0 size=       0kB time=00:00:00.44 bitrate=   0.9kbits/s speed=9.73x    frame=  103 fps=0.0 q=27.0 size=       0kB time=00:00:04.45 bitrate=   0.1kbits/s dup=0 drop=14 speed=8.15x    frame=  248 fps=237 q=27.0 size=       0kB time=00:00:09.85 bitrate=   0.0kbits/s dup=0 drop=43 speed=9.41x    frame=  385 fps=249 q=27.0 size=       0kB time=00:00:15.40 bitrate=   0.0kbits/s dup=0 drop=71 speed=9.95x    frame=  519 fps=253 q=27.0 size=       0kB time=00:00:20.73 bitrate=   0.0kbits/s dup=0 drop=98 speed=10.1x    frame=  655 fps=257 q=27.0 size=       0kB time=00:00:26.53 bitrate=   0.0kbits/s dup=0 drop=125 speed=10.4x    frame=  799 fps=262 q=27.0 size=     256kB time=00:00:32.02 bitrate=  65.5kbits/s dup=0 drop=154 speed=10.5x    frame=  935 fps=263 q=27.0 size=     256kB time=00:00:37.24 bitrate=  56.3kbits/s dup=0 drop=181 speed=10.5x    frame= 1070 fps=264 q=27.0 size=     256kB time=00:00:43.15 bitrate=  48.6kbits/s dup=0 drop=208 speed=10.6x    frame= 1203 fps=264 q=27.0 size=     256kB time=00:00:48.25 bitrate=  43.5kbits/s dup=0 drop=234 speed=10.6x    frame= 1325 fps=262 q=27.0 size=     256kB time=00:00:53.29 bitrate=  39.4kbits/s dup=0 drop=259 speed=10.5x    frame= 1460 fps=263 q=27.0 size=     256kB time=00:00:58.64 bitrate=  35.8kbits/s dup=0 drop=286 speed=10.6x    frame= 1600 fps=264 q=27.0 size=     512kB time=00:01:03.97 bitrate=  65.6kbits/s dup=0 drop=314 speed=10.6x    frame= 1738 fps=265 q=27.0 size=     512kB time=00:01:09.41 bitrate=  60.4kbits/s dup=0 drop=341 speed=10.6x    frame= 1866 fps=264 q=27.0 size=     512kB time=00:01:14.88 bitrate=  56.0kbits/s dup=0 drop=367 speed=10.6x    frame= 1998 fps=264 q=27.0 size=     512kB time=00:01:19.76 bitrate=  52.6kbits/s dup=0 drop=393 speed=10.6x    frame= 2142 fps=266 q=27.0 size=     512kB time=00:01:25.56 bitrate=  49.0kbits/s dup=0 drop=422 speed=10.6x    frame= 2283 fps=267 q=27.0 size=     768kB time=00:01:31.20 bitrate=  69.0kbits/s dup=0 drop=450 speed=10.7x    frame= 2416 fps=267 q=27.0 size=     768kB time=00:01:36.55 bitrate=  65.2kbits/s dup=0 drop=477 speed=10.7x    frame= 2553 fps=267 q=27.0 size=     768kB time=00:01:42.48 bitrate=  61.4kbits/s dup=0 drop=504 speed=10.7x    frame= 2688 fps=267 q=27.0 size=     768kB time=00:01:47.77 bitrate=  58.4kbits/s dup=0 drop=531 speed=10.7x    frame= 2823 fps=267 q=27.0 size=     768kB time=00:01:53.13 bitrate=  55.6kbits/s dup=0 drop=558 speed=10.7x    frame= 2955 fps=267 q=27.0 size=     768kB time=00:01:58.54 bitrate=  53.1kbits/s dup=0 drop=585 speed=10.7x    [mp4 @ 0x5581b009ff80] Starting second pass: moving the moov atom to the beginning of the file
frame= 3077 fps=267 q=-1.0 Lsize=    1180kB time=00:02:02.96 bitrate=  78.6kbits/s dup=0 drop=609 speed=10.7x    
video:233kB audio:854kB subtitle:0kB other streams:0kB global headers:0kB muxing overhead: 8.540278%
[aac @ 0x5581aff3c1c0] Qavg: 45654.340
[libx264 @ 0x5581aff5b080] frame I:13    Avg QP: 6.93  size:  8127
[libx264 @ 0x5581aff5b080] frame P:775   Avg QP:21.07  size:    44
[libx264 @ 0x5581aff5b080] frame B:2289  Avg QP:31.18  size:    43
[libx264 @ 0x5581aff5b080] consecutive B-frames:  0.8%  0.0%  0.0% 99.2%
[libx264 @ 0x5581aff5b080] mb I  I16..4:  8.6% 88.6%  2.8%
[libx264 @ 0x5581aff5b080] mb P  I16..4:  0.0%  0.0%  0.0%  P16..4:  0.0%  0.0%  0.0%  0.0%  0.0%    skip:100.0%
[libx264 @ 0x5581aff5b080] mb B  I16..4:  0.0%  0.0%  0.0%  B16..8:  0.1%  0.0%  0.0%  direct: 0.0%  skip:99.9%  L0:45.2% L1:54.8% BI: 0.0%
[libx264 @ 0x5581aff5b080] 8x8 transform intra:89.2% inter:72.3%
[libx264 @ 0x5581aff5b080] coded y,uvDC,uvAC intra: 3.8% 0.0% 0.0% inter: 0.0% 0.0% 0.0%
[libx264 @ 0x5581aff5b080] i16 v,h,dc,p: 82%  8% 10%  0%
[libx264 @ 0x5581aff5b080] i8 v,h,dc,ddl,ddr,vr,hd,vl,hu: 81%  9%  9%  0%  0%  0%  0%  0%  0%
[libx264 @ 0x5581aff5b080] i4 v,h,dc,ddl,ddr,vr,hd,vl,hu: 23% 21% 17%  4% 10%  8%  7%  7%  4%
[libx264 @ 0x5581aff5b080] i8c dc,h,v,p: 100%  0%  0%  0%
[libx264 @ 0x5581aff5b080] Weighted P-Frames: Y:0.3% UV:0.0%
[libx264 @ 0x5581aff5b080] ref P L0: 80.8%  9.8%  9.4%
[libx264 @ 0x5581aff5b080] ref B L0: 89.1% 10.7%  0.2%
[libx264 @ 0x5581aff5b080] ref B L1: 99.7%  0.3%
[libx264 @ 0x5581aff5b080] kb/s:15.47
